# xmcd
#
# Track frame offsets:
#	150
#	14468
#	28287
#	38286
#	49762
#	69450
#	91763
#	109660
#	127786
#	138831
#	155141
#	169833
#	186850
#	206989
#	228429
#	245266
#
# Disc length: 3460 seconds
#
# Revision: 0
# Processed by: cddbd v1.5.2PL0 Copyright (c) Steve Scherf et al.
# Submitted via: EasyCDDAExtractor 16.0.6.1
#
DISCID=d10d8210
DTITLE=Συλλογικός δίσκος - Ελληνικά hits 80s 1
DYEAR=2011
DGENRE=Ποικίλη
TTITLE0=Γιοκαρίνης Γιάννης - Ευλαμπία [Γ. Γιοκαρίνης]
TTITLE1=Μάνου Αφροδίτη - Νυχτερινή εκπομπή [Αφρ. Μάνου]
TTITLE2=Γερμανός Βαγγέλης - Ο απόκληρος [Β. Γερμανός]
TTITLE3=Κηλαηδόνης Λουκιανός - Κάπου την έχουμε πατήσει [Λ. Κηλαηδόνης]
TTITLE4=Αρλέτα - Η Σερενάτα [Λ. Παπαδόπουλος-Μαριανίνα Κριεζή]
TTITLE5=Ριφιφί - Αμετανόητα τρελλός [Μ. Βαφειάδης]
TTITLE6=Κωνσταντίνα - Στον επόμενο τόνο [Παν. Μαθιέλλης-Π. Φαλάρας]
TTITLE7=Μπίγαλης Κώστας - Ρίνα Κατερίνα [Κ. Μπίγαλης]
TTITLE8=2002 GR - Είπες πως [Σωτ. Καραούλιας-Σ. Καραΐνδρος]
TTITLE9=Τουρκογιώργης Αντώνης - Στέλλα, σ' αγαπώ... Τάκης [Α. Τουρκογιώργης]
TTITLE10=Γλυκερία - Και ζαλίστηκα [Αν. Στεφανίδης-Σαρ. Αλιβιζάτος]
TTITLE11=Ζορμπαλά Μαργαρίτα - Τα κόκκινα πατίνια [Άγγ. Κατσίρης-Σωτ. Κακίσης]
TTITLE12=Καζούλλης Βασίλης - Μπλε μωρό [Βασ. Καζούλλης]
TTITLE13=Τσαλιγοπούλου Ελένη - Σώπα κι άκουσε [Γ. Ζήκας-Μαρία Αρκουλή]
TTITLE14=Σιδηρόπουλος Παύλος-Απροσάρμοστοι - Αποκάλυψη [Π. Σιδηρόπουλος]
TTITLE15=ΝΑΜΑ - Η κονσέρβα [Αρ. Παυλής]
EXTD=
EXTT0=
EXTT1=
EXTT2=
EXTT3=
EXTT4=
EXTT5=
EXTT6=
EXTT7=
EXTT8=
EXTT9=
EXTT10=
EXTT11=
EXTT12=
EXTT13=
EXTT14=
EXTT15=
PLAYORDER=
